<?xml version="1.0" encoding="utf-8"?>
<!-- Generator: Adobe Illustrator 18.0.0, SVG Export Plug-In . SVG Version: 6.00 Build 0)  -->
<!DOCTYPE svg PUBLIC "-//W3C//DTD SVG 1.1//EN" "http://www.w3.org/Graphics/SVG/1.1/DTD/svg11.dtd">
<svg version="1.1" id="Layer_1" xmlns="http://www.w3.org/2000/svg" xmlns:xlink="http://www.w3.org/1999/xlink" x="0px" y="0px"
	 viewBox="0 0 818 84.3" enable-background="new 0 0 818 84.3" xml:space="preserve">
<g>
	<g>
		<path fill="#EB0029" d="M468.9,16.2L447,43.7h-12.9l21.9-27.5H468.9z"/>
	</g>
</g>
<g>
	<g>
		<path fill="#EB0029" d="M365.7,16.2l42.7,0.2l-8.1,10.1l-42.7-0.2L365.7,16.2z"/>
	</g>
</g>
<g>
	<g>
		<path fill="#EB0029" d="M357.9,61.1l42.4-0.2l8.1,10.1l-40.9,0.2L357.9,61.1z"/>
	</g>
</g>
<text transform="matrix(1 0 0 1 473.5385 71.1977)" fill="#010101" font-family="'MuseoSans-700'" font-size="76.4644" letter-spacing="-7">FOOTBALL</text>
<text transform="matrix(1 0 0 1 6.1737 71.0297)" fill="#010101" font-family="'MuseoSans-700'" font-size="76.4644" letter-spacing="-7">FOOTBALL</text>
<g>
	<g>
		<path fill="#EB0029" d="M447.1,43.5l-21.9,27.5h-12.9l21.9-27.5l-21.9-27.3h12.9L447.1,43.5z"/>
	</g>
</g>
<g>
	<g>
		<path fill="#EB0029" d="M447.1,43.5l-21.9,27.5h-12.9l21.9-27.5H447.1z"/>
	</g>
</g>
<g>
	<g>
		<path fill="#EB0029" d="M373.6,43.7l21.9-27.5h12.9l-21.9,27.5H373.6z"/>
	</g>
</g>
<g>
	<g>
		<path fill="#EB0029" d="M357.4,71.2l0.2-45l10.1-0.4l-0.2,45.4L357.4,71.2z"/>
	</g>
</g>
<g>
	<path fill="#010101" d="M406.2,33.4h7.6V36h-7.6V33.4z"/>
</g>
<g>
	<path fill="#010101" d="M406.2,39.5h7.6V42h-7.6V39.5z"/>
</g>
<g>
	<path fill="#010101" d="M406.2,45.4h7.6V48h-7.6V45.4z"/>
</g>
<g>
	<path fill="#010101" d="M406.2,51.3h7.6v2.6h-7.6V51.3z"/>
</g>
<g>
	<g>
		<path fill="#EB0029" d="M373.6,43.7l21.9-27.5h12.9l-21.9,27.5L408.4,71h-12.9L373.6,43.7z"/>
	</g>
</g>
</svg>
